<?xml version="1.0" encoding="UTF-8" standalone="no"?>
<!-- Created with Inkscape (http://www.inkscape.org/) -->

<svg
   xmlns:dc="http://purl.org/dc/elements/1.1/"
   xmlns:cc="http://creativecommons.org/ns#"
   xmlns:rdf="http://www.w3.org/1999/02/22-rdf-syntax-ns#"
   xmlns:svg="http://www.w3.org/2000/svg"
   xmlns="http://www.w3.org/2000/svg"
   xmlns:xlink="http://www.w3.org/1999/xlink"
   xmlns:sodipodi="http://sodipodi.sourceforge.net/DTD/sodipodi-0.dtd"
   xmlns:inkscape="http://www.inkscape.org/namespaces/inkscape"
   width="300"
   height="50"
   id="svg2"
   version="1.1"
   inkscape:version="0.48.2 r9819"
   sodipodi:docname="basketball-css-spritesheet.png">
  <defs
     id="defs4">
    <radialGradient
       id="radialGradient15925"
       gradientUnits="userSpaceOnUse"
       cy="221.03"
       cx="197.82001"
       gradientTransform="matrix(1,0,0,0.14054,-13.435,194.06)"
       r="99.943001">
      <stop
         id="stop15861"
         offset="0" />
      <stop
         id="stop15863"
         stop-opacity="0"
         offset="1" />
    </radialGradient>
    <radialGradient
       id="radialGradient15890"
       xlink:href="#linearGradient4069"
       gradientUnits="userSpaceOnUse"
       cy="98.153999"
       cx="224.32001"
       gradientTransform="matrix(1.1233,0,0,1.1233,-107.84,-26.469)"
       r="100" />
    <linearGradient
       id="linearGradient4069">
      <stop
         id="stop4071"
         stop-color="#ffcaa6"
         offset="0" />
      <stop
         id="stop4077"
         stop-color="#d54800"
         offset=".78634" />
      <stop
         id="stop4073"
         stop-color="#8d3d17"
         offset="1" />
    </linearGradient>
    <radialGradient
       id="radialGradient15940"
       xlink:href="#linearGradient15851"
       gradientUnits="userSpaceOnUse"
       cy="56.796001"
       cx="127.99"
       gradientTransform="matrix(0.76146,0,0,0.76146,133.24,125.67)"
       r="58.689999" />
    <linearGradient
       id="linearGradient15851">
      <stop
         id="stop15853"
         stop-color="#fff"
         offset="0" />
      <stop
         id="stop15855"
         stop-color="#fff"
         stop-opacity="0"
         offset="1" />
    </linearGradient>
    <radialGradient
       id="radialGradient15942"
       xlink:href="#linearGradient15851"
       gradientUnits="userSpaceOnUse"
       cy="56.796001"
       cx="127.99"
       gradientTransform="matrix(0.79201,0,0,0.79201,114.59,39.618)"
       r="58.689999" />
    <linearGradient
       id="linearGradient3039">
      <stop
         id="stop3041"
         stop-color="#fff"
         offset="0" />
      <stop
         id="stop3043"
         stop-color="#fff"
         stop-opacity="0"
         offset="1" />
    </linearGradient>
    <radialGradient
       id="radialGradient15961"
       xlink:href="#linearGradient4069"
       gradientUnits="userSpaceOnUse"
       cy="63.394001"
       cx="148.95"
       gradientTransform="matrix(1.6383,0,0,1.6094,-96.24,-38.448)"
       r="98.405998" />
    <linearGradient
       id="linearGradient3046">
      <stop
         id="stop3048"
         stop-color="#ffcaa6"
         offset="0" />
      <stop
         id="stop3050"
         stop-color="#d54800"
         offset=".78634" />
      <stop
         id="stop3052"
         stop-color="#8d3d17"
         offset="1" />
    </linearGradient>
    <radialGradient
       inkscape:collect="always"
       xlink:href="#linearGradient4069"
       id="radialGradient3072"
       gradientUnits="userSpaceOnUse"
       gradientTransform="matrix(1.1233,0,0,1.1233,-107.84,-26.469)"
       cx="224.32001"
       cy="98.153999"
       r="100" />
    <radialGradient
       inkscape:collect="always"
       xlink:href="#linearGradient15851"
       id="radialGradient3074"
       gradientUnits="userSpaceOnUse"
       gradientTransform="matrix(0.76146,0,0,0.76146,133.24,125.67)"
       cx="127.99"
       cy="56.796001"
       r="58.689999" />
    <radialGradient
       inkscape:collect="always"
       xlink:href="#linearGradient15851"
       id="radialGradient3076"
       gradientUnits="userSpaceOnUse"
       gradientTransform="matrix(0.79201,0,0,0.79201,114.59,39.618)"
       cx="127.99"
       cy="56.796001"
       r="58.689999" />
    <radialGradient
       inkscape:collect="always"
       xlink:href="#linearGradient4069"
       id="radialGradient3078"
       gradientUnits="userSpaceOnUse"
       gradientTransform="matrix(1.6383,0,0,1.6094,-96.24,-38.448)"
       cx="148.95"
       cy="63.394001"
       r="98.405998" />
    <radialGradient
       inkscape:collect="always"
       xlink:href="#radialGradient15925"
       id="radialGradient3080"
       gradientUnits="userSpaceOnUse"
       gradientTransform="matrix(1,0,0,0.14054,492.40729,258.54328)"
       cx="197.82001"
       cy="221.03"
       r="99.943001" />
    <radialGradient
       inkscape:collect="always"
       xlink:href="#linearGradient4069"
       id="radialGradient3089"
       gradientUnits="userSpaceOnUse"
       gradientTransform="matrix(1.1233,0,0,1.1233,-107.84,-26.469)"
       cx="224.32001"
       cy="98.153999"
       r="100" />
    <radialGradient
       inkscape:collect="always"
       xlink:href="#linearGradient15851"
       id="radialGradient3091"
       gradientUnits="userSpaceOnUse"
       gradientTransform="matrix(0.76146,0,0,0.76146,133.24,125.67)"
       cx="127.99"
       cy="56.796001"
       r="58.689999" />
    <radialGradient
       inkscape:collect="always"
       xlink:href="#linearGradient15851"
       id="radialGradient3093"
       gradientUnits="userSpaceOnUse"
       gradientTransform="matrix(0.79201,0,0,0.79201,114.59,39.618)"
       cx="127.99"
       cy="56.796001"
       r="58.689999" />
    <radialGradient
       inkscape:collect="always"
       xlink:href="#linearGradient4069"
       id="radialGradient3095"
       gradientUnits="userSpaceOnUse"
       gradientTransform="matrix(1.6383,0,0,1.6094,-96.24,-38.448)"
       cx="148.95"
       cy="63.394001"
       r="98.405998" />
    <radialGradient
       inkscape:collect="always"
       xlink:href="#radialGradient15925"
       id="radialGradient3099"
       gradientUnits="userSpaceOnUse"
       gradientTransform="matrix(0.9503254,0,0,0.19446563,1003.7233,244.03549)"
       cx="197.82001"
       cy="221.03"
       r="99.943001" />
    <radialGradient
       inkscape:collect="always"
       xlink:href="#linearGradient4069"
       id="radialGradient3117"
       gradientUnits="userSpaceOnUse"
       gradientTransform="matrix(1.1233,0,0,1.1233,-107.84,-26.469)"
       cx="224.32001"
       cy="98.153999"
       r="100" />
    <radialGradient
       inkscape:collect="always"
       xlink:href="#linearGradient15851"
       id="radialGradient3119"
       gradientUnits="userSpaceOnUse"
       gradientTransform="matrix(0.76146,0,0,0.76146,133.24,125.67)"
       cx="127.99"
       cy="56.796001"
       r="58.689999" />
    <radialGradient
       inkscape:collect="always"
       xlink:href="#linearGradient15851"
       id="radialGradient3121"
       gradientUnits="userSpaceOnUse"
       gradientTransform="matrix(0.79201,0,0,0.79201,114.59,39.618)"
       cx="127.99"
       cy="56.796001"
       r="58.689999" />
    <radialGradient
       inkscape:collect="always"
       xlink:href="#linearGradient4069"
       id="radialGradient3123"
       gradientUnits="userSpaceOnUse"
       gradientTransform="matrix(1.6383,0,0,1.6094,-96.24,-38.448)"
       cx="148.95"
       cy="63.394001"
       r="98.405998" />
    <radialGradient
       inkscape:collect="always"
       xlink:href="#radialGradient15925"
       id="radialGradient3127"
       gradientUnits="userSpaceOnUse"
       gradientTransform="matrix(1,0,0,0.25578823,1499.342,236.61343)"
       cx="197.82001"
       cy="221.03"
       r="99.943001" />
    <radialGradient
       inkscape:collect="always"
       xlink:href="#linearGradient4069"
       id="radialGradient3145"
       gradientUnits="userSpaceOnUse"
       gradientTransform="matrix(1.1233,0,0,1.1233,-107.84,-26.469)"
       cx="224.32001"
       cy="98.153999"
       r="100" />
    <radialGradient
       inkscape:collect="always"
       xlink:href="#linearGradient15851"
       id="radialGradient3147"
       gradientUnits="userSpaceOnUse"
       gradientTransform="matrix(0.76146,0,0,0.76146,133.24,125.67)"
       cx="127.99"
       cy="56.796001"
       r="58.689999" />
    <radialGradient
       inkscape:collect="always"
       xlink:href="#linearGradient15851"
       id="radialGradient3149"
       gradientUnits="userSpaceOnUse"
       gradientTransform="matrix(0.79201,0,0,0.79201,114.59,39.618)"
       cx="127.99"
       cy="56.796001"
       r="58.689999" />
    <radialGradient
       inkscape:collect="always"
       xlink:href="#linearGradient4069"
       id="radialGradient3151"
       gradientUnits="userSpaceOnUse"
       gradientTransform="matrix(1.6383,0,0,1.6094,-96.24,-38.448)"
       cx="148.95"
       cy="63.394001"
       r="98.405998" />
    <radialGradient
       inkscape:collect="always"
       xlink:href="#radialGradient15925"
       id="radialGradient3155"
       gradientUnits="userSpaceOnUse"
       gradientTransform="matrix(1,0,0,0.15872517,2018.8586,266.45109)"
       cx="197.82001"
       cy="221.03"
       r="99.943001" />
    <radialGradient
       inkscape:collect="always"
       xlink:href="#linearGradient4069"
       id="radialGradient3176"
       gradientUnits="userSpaceOnUse"
       gradientTransform="matrix(1.1233,0,0,1.1233,-107.84,-26.469)"
       cx="224.32001"
       cy="98.153999"
       r="100" />
    <radialGradient
       inkscape:collect="always"
       xlink:href="#linearGradient15851"
       id="radialGradient3178"
       gradientUnits="userSpaceOnUse"
       gradientTransform="matrix(0.76146,0,0,0.76146,133.24,125.67)"
       cx="127.99"
       cy="56.796001"
       r="58.689999" />
    <radialGradient
       inkscape:collect="always"
       xlink:href="#linearGradient15851"
       id="radialGradient3180"
       gradientUnits="userSpaceOnUse"
       gradientTransform="matrix(0.79201,0,0,0.79201,114.59,39.618)"
       cx="127.99"
       cy="56.796001"
       r="58.689999" />
    <radialGradient
       inkscape:collect="always"
       xlink:href="#linearGradient4069"
       id="radialGradient3182"
       gradientUnits="userSpaceOnUse"
       gradientTransform="matrix(1.6383,0,0,1.6094,-96.24,-38.448)"
       cx="148.95"
       cy="63.394001"
       r="98.405998" />
    <radialGradient
       inkscape:collect="always"
       xlink:href="#linearGradient4069"
       id="radialGradient3196"
       gradientUnits="userSpaceOnUse"
       gradientTransform="matrix(1.1233,0,0,1.1233,-107.84,-26.469)"
       cx="224.32001"
       cy="98.153999"
       r="100" />
    <radialGradient
       inkscape:collect="always"
       xlink:href="#linearGradient15851"
       id="radialGradient3198"
       gradientUnits="userSpaceOnUse"
       gradientTransform="matrix(0.76146,0,0,0.76146,133.24,125.67)"
       cx="127.99"
       cy="56.796001"
       r="58.689999" />
    <radialGradient
       inkscape:collect="always"
       xlink:href="#linearGradient15851"
       id="radialGradient3200"
       gradientUnits="userSpaceOnUse"
       gradientTransform="matrix(0.79201,0,0,0.79201,114.59,39.618)"
       cx="127.99"
       cy="56.796001"
       r="58.689999" />
    <radialGradient
       inkscape:collect="always"
       xlink:href="#linearGradient4069"
       id="radialGradient3202"
       gradientUnits="userSpaceOnUse"
       gradientTransform="matrix(1.6383,0,0,1.6094,-96.24,-38.448)"
       cx="148.95"
       cy="63.394001"
       r="98.405998" />
    <radialGradient
       inkscape:collect="always"
       xlink:href="#radialGradient15925"
       id="radialGradient3238"
       gradientUnits="userSpaceOnUse"
       gradientTransform="matrix(0.90153035,0,0,0.25578823,2468.3197,238.01048)"
       cx="197.82001"
       cy="221.03"
       r="99.943001" />
    <radialGradient
       inkscape:collect="always"
       xlink:href="#radialGradient15925"
       id="radialGradient3244"
       gradientUnits="userSpaceOnUse"
       gradientTransform="matrix(1,0,0,0.25578823,2954.2845,227.90155)"
       cx="197.82001"
       cy="221.03"
       r="99.943001" />
  </defs>
  <sodipodi:namedview
     id="base"
     pagecolor="#ffffff"
     bordercolor="#666666"
     borderopacity="1.0"
     inkscape:pageopacity="0.0"
     inkscape:pageshadow="2"
     inkscape:zoom="1.2732019"
     inkscape:cx="188.07087"
     inkscape:cy="-68.894457"
     inkscape:document-units="px"
     inkscape:current-layer="svg2"
     showgrid="true"
     borderlayer="true"
     inkscape:showpageshadow="false"
     inkscape:window-width="1296"
     inkscape:window-height="850"
     inkscape:window-x="424"
     inkscape:window-y="68"
     inkscape:window-maximized="0">
    <inkscape:grid
       type="xygrid"
       id="grid2993"
       empspacing="25"
       visible="true"
       enabled="true"
       snapvisiblegridlinesonly="false" />
  </sodipodi:namedview>
  <metadata
     id="metadata7">
    <rdf:RDF>
      <cc:Work
         rdf:about="">
        <dc:format>image/svg+xml</dc:format>
        <dc:type
           rdf:resource="http://purl.org/dc/dcmitype/StillImage" />
        <dc:title></dc:title>
      </cc:Work>
    </rdf:RDF>
  </metadata>
  <g
     inkscape:label="Layer 1"
     inkscape:groupmode="layer"
     id="layer1"
     transform="translate(0,-1002.3622)">
    <g
       style="enable-background:new"
       id="layer1-1"
       transform="matrix(0.09892243,0,0,0.09892243,-42.606425,1018.6854)">
      <path
         inkscape:connector-curvature="0"
         id="path15915"
         style="color:#000000;fill:url(#radialGradient3080);enable-background:accumulate"
         d="m 690.25229,275.55328 c -39.897,-0.0723 -78.394,3.5849 -92.812,8.8096 -5.3915,1.9091 -7.4689,4.0006 -7.125,6.0456 1.9691,6.1288 35.905,11.708 78.781,12.916 39.662,1.2548 83.688,-1.277 105.31,-6.1246 22.405,-4.8145 20.914,-11.56 -4.4688,-16.101 -18.622,-3.4301 -48.84,-5.601 -79.688,-5.5455 z" />
      <g
         id="g3082"
         transform="translate(491.08534,-176.10389)">
        <path
           d="M 117.66,15.125 C 77.759,14.61 39.262,40.66 24.844,77.875 c -5.392,13.598 -7.469,28.495 -7.125,43.065 1.969,43.65 35.905,83.39 78.781,92 39.66,8.93 83.69,-9.1 105.31,-43.63 C 224.22,135.02 222.73,86.969 197.34,54.63 178.72,30.193 148.5,14.73 117.66,15.125 z"
           transform="translate(80.19,14.37)"
           style="color:#000000;fill:url(#radialGradient3089);enable-background:accumulate"
           id="path2985"
           inkscape:connector-curvature="0" />
        <path
           d="m 230.68,124.23 c -24.681,0 -44.688,20.006 -44.688,44.688 0,24.681 20.006,44.688 44.688,44.688 24.681,0 44.717,-20.006 44.717,-44.688 0,-24.681 -20.036,-44.688 -44.717,-44.688 z"
           style="opacity:0.37673998;color:#000000;fill:url(#radialGradient3091);enable-background:accumulate"
           id="path15938"
           inkscape:connector-curvature="0" />
        <path
           d="m 215.94,38.12 c -25.672,0 -46.48,20.809 -46.48,46.48 0,25.672 20.809,46.48 46.48,46.48 25.672,0 46.511,-20.809 46.511,-46.48 0,-25.672 -20.839,-46.48 -46.511,-46.48 z"
           style="opacity:0.48372001;color:#000000;fill:url(#radialGradient3093);enable-background:accumulate"
           id="path15927"
           inkscape:connector-curvature="0" />
        <path
           d="m 144.34,21.406 c 3.38,6.531 5.82,14.419 7.41,23.188 -9.4,-2.227 -18.63,-5.852 -27.87,-9.406 -11.87,-4.561 -23.79,-8.969 -36.255,-9.782 -1.558,-0.101 -3.113,-0.145 -4.687,-0.125 -1.522,0.02 -3.057,0.106 -4.594,0.25 -3.51,2.248 -7.975,3.896 -11.563,5.407 7.051,-2.378 13.914,-3.002 20.657,-2.563 11.841,0.772 23.442,5.013 35.282,9.563 9.62,3.7 19.4,7.552 29.56,9.812 0.72,4.617 1.21,9.487 1.5,14.5 -10.93,-2.132 -22.38,-3.328 -33.84,-3.562 -1.38,-0.029 -2.75,-0.031 -4.13,-0.032 C 78.004,58.637 40.398,68.997 20.688,91.062 20.179,93.196 19.75,95.336 19.375,97.5 37.41,72.777 78.772,60.91 119.875,61.75 c 11.58,0.237 23.09,1.498 34.06,3.719 0,0.114 0.02,0.23 0.03,0.343 0.23,5.994 0.16,12.204 -0.13,18.532 -1.84,-0.257 -3.7,-0.443 -5.56,-0.469 -0.8,-0.011 -1.6,0 -2.4,0.031 -7.71,0.306 -15.42,2.568 -22.66,6.875 -25.844,15.379 -61.665,46.989 -84.22,85.909 0.678,0.86 1.389,1.72 2.094,2.56 22.198,-38.84 58.194,-70.73 83.746,-85.938 9.28,-5.523 19.29,-7.538 28.88,-6.124 -0.85,14.842 -2.99,30.252 -6.1,45.032 -4.63,22.06 -11.36,42.74 -18.84,58.03 -3.74,7.65 -7.65,13.95 -11.53,18.37 -2.39,2.73 -4.79,4.71 -7.03,5.91 1.66,0.12 3.34,0.18 5.03,0.22 1.46,-1.19 2.89,-2.6 4.31,-4.22 4.15,-4.73 8.22,-11.23 12.03,-19.03 7.63,-15.6 14.36,-36.47 19.03,-58.72 3.11,-14.78 5.29,-30.15 6.16,-45.03 8.1,1.83 15.76,6.154 22.31,12.97 13.63,14.18 22.24,39.33 18.19,75.19 1.27,-1.68 2.44,-3.43 3.6,-5.19 2.68,-33.6 -5.82,-57.76 -19.5,-72.001 -7.07,-7.35 -15.53,-11.955 -24.44,-13.844 0.3,-6.376 0.34,-12.649 0.12,-18.719 25.43,5.638 47.39,16.565 59.13,32.282 -0.35,-2.156 -0.73,-4.311 -1.22,-6.438 -13.05,-14.317 -34.17,-24.021 -58.06,-29.125 -0.27,-4.995 -0.76,-9.825 -1.44,-14.469 1.28,0.237 2.58,0.48 3.87,0.656 9.63,1.316 19.65,0.793 30.16,-2.937 -0.82,-0.765 -1.63,-1.542 -2.47,-2.281 -9.47,3.119 -18.46,3.483 -27.25,2.281 -1.6,-0.219 -3.19,-0.465 -4.78,-0.781 -1.44,-8.446 -3.64,-16.182 -6.75,-22.844 -1.29,-0.386 -2.59,-0.756 -3.91,-1.094 z"
           transform="translate(80.19,14.37)"
           style="text-indent:0;text-transform:none;block-progression:tb;color:#000000;fill:url(#radialGradient3095);enable-background:accumulate"
           id="path15950"
           inkscape:connector-curvature="0" />
        <path
           d="m 223.75,33.286 c 3.2773,6.6153 5.645,14.596 7.1928,23.478 -9.1235,-2.2554 -18.086,-5.9277 -27.059,-9.5281 -11.513,-4.6196 -23.09,-9.0788 -35.185,-9.9017 -1.5119,-0.10286 -3.0183,-0.14487 -4.5461,-0.12455 -1.4765,0.01963 -2.9608,0.10279 -4.4527,0.2491 -3.4059,2.2767 -7.728,3.95 -11.21,5.4802 6.8415,-2.4084 13.479,-3.0607 20.021,-2.6156 11.49,0.78175 22.766,5.0752 34.251,9.6838 9.3411,3.7482 18.817,7.6745 28.678,9.964 0.6963,4.6765 1.1788,9.5881 1.4635,14.666 -10.609,-2.1598 -21.724,-3.3747 -32.85,-3.612 -1.3332,-0.0284 -2.652,-0.03049 -3.9856,-0.03109 -38.474,-0.02013 -76.761,11.531 -95.001,36.182 -0.93416,1.3192 0.0361,1.6682 -0.31137,3.3006 -0.21218,0.88309 -0.64984,3.2289 -1.0275,3.8922 l 0.15569,0.0934 c 15.834,-27.832 58.104,-41.218 100.11,-40.322 11.246,0.23982 22.429,1.5177 33.068,3.7676 0.005,0.11529 0.0268,0.22706 0.0311,0.34251 0.22538,6.0707 0.15567,12.366 -0.12455,18.776 -1.786,-0.26003 -3.581,-0.44108 -5.3868,-0.46706 -0.77711,-0.01116 -1.5566,-9.96e-4 -2.3353,0.03109 -7.4755,0.30991 -14.992,2.612 -22.014,6.9748 -25.458,15.817 -60.884,48.557 -82.701,88.804 0.68028,0.8359 1.3797,1.6468 2.0862,2.4599 21.455,-40.107 57.05,-73.084 82.203,-88.711 9.0049,-5.5945 18.719,-7.6287 28.024,-6.1964 -0.8195,15.038 -2.9048,30.646 -5.9161,45.617 -4.4951,22.348 -11.025,43.268 -18.278,58.757 -3.6264,7.7443 -7.4401,14.139 -11.21,18.62 -2.3224,2.761 -4.6395,4.758 -6.8191,5.9784 1.6166,0.11598 3.2515,0.18003 4.8886,0.21797 1.4176,-1.203 2.8234,-2.6251 4.2036,-4.2658 4.027,-4.7875 7.9459,-11.374 11.645,-19.274 7.3992,-15.801 13.962,-36.932 18.496,-59.473 3.0116,-14.973 5.1034,-30.546 5.9473,-45.617 7.8588,1.8536 15.316,6.2374 21.672,13.14 13.607,14.778 22.021,41.302 17.25,79.307 1.2241,-1.4819 2.4115,-2.994 3.5497,-4.5461 3.5571,-36.042 -4.8141,-61.824 -18.589,-76.785 -6.8542,-7.4444 -15.075,-12.13 -23.727,-14.043 0.29207,-6.4582 0.33982,-12.814 0.12455,-18.963 26.85,6.2139 49.758,18.771 60.189,37.023 -0.39941,-2.6089 -0.8794,-5.2128 -1.4635,-7.7532 -12.35,-16.196 -34.092,-27.043 -58.881,-32.57 -0.26044,-5.0593 -0.70953,-9.9618 -1.37,-14.666 1.2399,0.23973 2.4832,0.47508 3.7365,0.65389 9.337,1.3322 19.073,0.81987 29.269,-2.9581 -0.79153,-0.77527 -1.5806,-1.5554 -2.3976,-2.3042 -9.192,3.1591 -17.903,3.5217 -26.436,2.3042 -1.5533,-0.22162 -3.098,-0.48928 -4.6395,-0.80958 -1.402,-8.5549 -3.5242,-16.387 -6.5389,-23.135 -1.2527,-0.39058 -2.5254,-0.74789 -3.7988,-1.0898 z"
           style="text-indent:0;text-transform:none;block-progression:tb;color:#000000;enable-background:accumulate"
           id="path4012"
           inkscape:connector-curvature="0" />
      </g>
      <path
         d="m 1191.7404,267.57228 c -37.9152,-0.10004 -74.4998,4.96043 -88.2016,12.18987 -5.1237,2.64163 -7.0979,5.53565 -6.7711,8.36532 1.8713,8.48043 34.1214,16.20039 74.8676,17.8719 37.6918,1.73627 79.5308,-1.76699 100.0788,-8.47462 21.292,-6.66184 19.8751,-15.99561 -4.2469,-22.27901 -17.6969,-4.74624 -46.4139,-7.75011 -75.7295,-7.67332 z"
         style="color:#000000;fill:url(#radialGradient3099);enable-background:accumulate"
         id="path3097"
         inkscape:connector-curvature="0" />
      <path
         inkscape:connector-curvature="0"
         id="path3125"
         style="color:#000000;fill:url(#radialGradient3127);enable-background:accumulate"
         d="m 1697.187,267.57228 c -39.897,-0.13159 -78.394,6.52465 -92.812,16.03381 -5.3915,3.47464 -7.4689,7.28125 -7.125,11.00323 1.9691,11.15465 35.905,21.30901 78.781,23.50761 39.662,2.28379 83.688,-2.32418 105.31,-11.147 22.405,-8.76257 20.914,-21.03965 -4.4688,-29.30445 -18.622,-6.24291 -48.84,-10.19403 -79.688,-10.09301 z" />
      <path
         d="m 2216.7036,285.66209 c -39.897,-0.0817 -78.394,4.04876 -92.812,9.94952 -5.3915,2.15613 -7.4689,4.51826 -7.125,6.82787 1.9691,6.92183 35.905,13.22295 78.781,14.58726 39.662,1.41717 83.688,-1.44223 105.31,-6.91709 22.405,-5.43747 20.914,-13.05581 -4.4688,-18.18439 -18.622,-3.87394 -48.84,-6.32574 -79.688,-6.26305 z"
         style="color:#000000;fill:url(#radialGradient3155);enable-background:accumulate"
         id="path3153"
         inkscape:connector-curvature="0" />
    </g>
    <g
       transform="matrix(0.09892243,0,0,0.09892243,56.168209,1004.8058)"
       id="g3056"
       style="enable-background:new">
      <path
         d="M 117.66,15.125 C 77.759,14.61 39.262,40.66 24.844,77.875 c -5.392,13.598 -7.469,28.495 -7.125,43.065 1.969,43.65 35.905,83.39 78.781,92 39.66,8.93 83.69,-9.1 105.31,-43.63 C 224.22,135.02 222.73,86.969 197.34,54.63 178.72,30.193 148.5,14.73 117.66,15.125 z"
         transform="translate(80.19,14.37)"
         style="color:#000000;fill:url(#radialGradient3072);enable-background:accumulate"
         id="path3060"
         inkscape:connector-curvature="0" />
      <path
         d="m 230.68,124.23 c -24.681,0 -44.688,20.006 -44.688,44.688 0,24.681 20.006,44.688 44.688,44.688 24.681,0 44.717,-20.006 44.717,-44.688 0,-24.681 -20.036,-44.688 -44.717,-44.688 z"
         style="opacity:0.37673998;color:#000000;fill:url(#radialGradient3074);enable-background:accumulate"
         id="path3062"
         inkscape:connector-curvature="0" />
      <path
         d="m 215.94,38.12 c -25.672,0 -46.48,20.809 -46.48,46.48 0,25.672 20.809,46.48 46.48,46.48 25.672,0 46.511,-20.809 46.511,-46.48 0,-25.672 -20.839,-46.48 -46.511,-46.48 z"
         style="opacity:0.48372001;color:#000000;fill:url(#radialGradient3076);enable-background:accumulate"
         id="path3064"
         inkscape:connector-curvature="0" />
      <path
         d="m 144.34,21.406 c 3.38,6.531 5.82,14.419 7.41,23.188 -9.4,-2.227 -18.63,-5.852 -27.87,-9.406 -11.87,-4.561 -23.79,-8.969 -36.255,-9.782 -1.558,-0.101 -3.113,-0.145 -4.687,-0.125 -1.522,0.02 -3.057,0.106 -4.594,0.25 -3.51,2.248 -7.975,3.896 -11.563,5.407 7.051,-2.378 13.914,-3.002 20.657,-2.563 11.841,0.772 23.442,5.013 35.282,9.563 9.62,3.7 19.4,7.552 29.56,9.812 0.72,4.617 1.21,9.487 1.5,14.5 -10.93,-2.132 -22.38,-3.328 -33.84,-3.562 -1.38,-0.029 -2.75,-0.031 -4.13,-0.032 C 78.004,58.637 40.398,68.997 20.688,91.062 20.179,93.196 19.75,95.336 19.375,97.5 37.41,72.777 78.772,60.91 119.875,61.75 c 11.58,0.237 23.09,1.498 34.06,3.719 0,0.114 0.02,0.23 0.03,0.343 0.23,5.994 0.16,12.204 -0.13,18.532 -1.84,-0.257 -3.7,-0.443 -5.56,-0.469 -0.8,-0.011 -1.6,0 -2.4,0.031 -7.71,0.306 -15.42,2.568 -22.66,6.875 -25.844,15.379 -61.665,46.989 -84.22,85.909 0.678,0.86 1.389,1.72 2.094,2.56 22.198,-38.84 58.194,-70.73 83.746,-85.938 9.28,-5.523 19.29,-7.538 28.88,-6.124 -0.85,14.842 -2.99,30.252 -6.1,45.032 -4.63,22.06 -11.36,42.74 -18.84,58.03 -3.74,7.65 -7.65,13.95 -11.53,18.37 -2.39,2.73 -4.79,4.71 -7.03,5.91 1.66,0.12 3.34,0.18 5.03,0.22 1.46,-1.19 2.89,-2.6 4.31,-4.22 4.15,-4.73 8.22,-11.23 12.03,-19.03 7.63,-15.6 14.36,-36.47 19.03,-58.72 3.11,-14.78 5.29,-30.15 6.16,-45.03 8.1,1.83 15.76,6.154 22.31,12.97 13.63,14.18 22.24,39.33 18.19,75.19 1.27,-1.68 2.44,-3.43 3.6,-5.19 2.68,-33.6 -5.82,-57.76 -19.5,-72.001 -7.07,-7.35 -15.53,-11.955 -24.44,-13.844 0.3,-6.376 0.34,-12.649 0.12,-18.719 25.43,5.638 47.39,16.565 59.13,32.282 -0.35,-2.156 -0.73,-4.311 -1.22,-6.438 -13.05,-14.317 -34.17,-24.021 -58.06,-29.125 -0.27,-4.995 -0.76,-9.825 -1.44,-14.469 1.28,0.237 2.58,0.48 3.87,0.656 9.63,1.316 19.65,0.793 30.16,-2.937 -0.82,-0.765 -1.63,-1.542 -2.47,-2.281 -9.47,3.119 -18.46,3.483 -27.25,2.281 -1.6,-0.219 -3.19,-0.465 -4.78,-0.781 -1.44,-8.446 -3.64,-16.182 -6.75,-22.844 -1.29,-0.386 -2.59,-0.756 -3.91,-1.094 z"
         transform="translate(80.19,14.37)"
         style="text-indent:0;text-transform:none;block-progression:tb;color:#000000;fill:url(#radialGradient3078);enable-background:accumulate"
         id="path3066"
         inkscape:connector-curvature="0" />
      <path
         d="m 223.75,33.286 c 3.2773,6.6153 5.645,14.596 7.1928,23.478 -9.1235,-2.2554 -18.086,-5.9277 -27.059,-9.5281 -11.513,-4.6196 -23.09,-9.0788 -35.185,-9.9017 -1.5119,-0.10286 -3.0183,-0.14487 -4.5461,-0.12455 -1.4765,0.01963 -2.9608,0.10279 -4.4527,0.2491 -3.4059,2.2767 -7.728,3.95 -11.21,5.4802 6.8415,-2.4084 13.479,-3.0607 20.021,-2.6156 11.49,0.78175 22.766,5.0752 34.251,9.6838 9.3411,3.7482 18.817,7.6745 28.678,9.964 0.6963,4.6765 1.1788,9.5881 1.4635,14.666 -10.609,-2.1598 -21.724,-3.3747 -32.85,-3.612 -1.3332,-0.0284 -2.652,-0.03049 -3.9856,-0.03109 -38.474,-0.02013 -76.761,11.531 -95.001,36.182 -0.93416,1.3192 0.0361,1.6682 -0.31137,3.3006 -0.21218,0.88309 -0.64984,3.2289 -1.0275,3.8922 l 0.15569,0.0934 c 15.834,-27.832 58.104,-41.218 100.11,-40.322 11.246,0.23982 22.429,1.5177 33.068,3.7676 0.005,0.11529 0.0268,0.22706 0.0311,0.34251 0.22538,6.0707 0.15567,12.366 -0.12455,18.776 -1.786,-0.26003 -3.581,-0.44108 -5.3868,-0.46706 -0.77711,-0.01116 -1.5566,-9.96e-4 -2.3353,0.03109 -7.4755,0.30991 -14.992,2.612 -22.014,6.9748 -25.458,15.817 -60.884,48.557 -82.701,88.804 0.68028,0.8359 1.3797,1.6468 2.0862,2.4599 21.455,-40.107 57.05,-73.084 82.203,-88.711 9.0049,-5.5945 18.719,-7.6287 28.024,-6.1964 -0.8195,15.038 -2.9048,30.646 -5.9161,45.617 -4.4951,22.348 -11.025,43.268 -18.278,58.757 -3.6264,7.7443 -7.4401,14.139 -11.21,18.62 -2.3224,2.761 -4.6395,4.758 -6.8191,5.9784 1.6166,0.11598 3.2515,0.18003 4.8886,0.21797 1.4176,-1.203 2.8234,-2.6251 4.2036,-4.2658 4.027,-4.7875 7.9459,-11.374 11.645,-19.274 7.3992,-15.801 13.962,-36.932 18.496,-59.473 3.0116,-14.973 5.1034,-30.546 5.9473,-45.617 7.8588,1.8536 15.316,6.2374 21.672,13.14 13.607,14.778 22.021,41.302 17.25,79.307 1.2241,-1.4819 2.4115,-2.994 3.5497,-4.5461 3.5571,-36.042 -4.8141,-61.824 -18.589,-76.785 -6.8542,-7.4444 -15.075,-12.13 -23.727,-14.043 0.29207,-6.4582 0.33982,-12.814 0.12455,-18.963 26.85,6.2139 49.758,18.771 60.189,37.023 -0.39941,-2.6089 -0.8794,-5.2128 -1.4635,-7.7532 -12.35,-16.196 -34.092,-27.043 -58.881,-32.57 -0.26044,-5.0593 -0.70953,-9.9618 -1.37,-14.666 1.2399,0.23973 2.4832,0.47508 3.7365,0.65389 9.337,1.3322 19.073,0.81987 29.269,-2.9581 -0.79153,-0.77527 -1.5806,-1.5554 -2.3976,-2.3042 -9.192,3.1591 -17.903,3.5217 -26.436,2.3042 -1.5533,-0.22162 -3.098,-0.48928 -4.6395,-0.80958 -1.402,-8.5549 -3.5242,-16.387 -6.5389,-23.135 -1.2527,-0.39058 -2.5254,-0.74789 -3.7988,-1.0898 z"
         style="text-indent:0;text-transform:none;block-progression:tb;color:#000000;enable-background:accumulate"
         id="path3068"
         inkscape:connector-curvature="0" />
    </g>
    <g
       style="enable-background:new"
       id="g3101"
       transform="matrix(0.09892243,0,0,0.09892243,105.75706,1018.6524)">
      <path
         inkscape:connector-curvature="0"
         id="path3105"
         style="color:#000000;fill:url(#radialGradient3117);enable-background:accumulate"
         transform="translate(80.19,14.37)"
         d="M 117.66,15.125 C 77.759,14.61 39.262,40.66 24.844,77.875 c -5.392,13.598 -7.469,28.495 -7.125,43.065 1.969,43.65 35.905,83.39 78.781,92 39.66,8.93 83.69,-9.1 105.31,-43.63 C 224.22,135.02 222.73,86.969 197.34,54.63 178.72,30.193 148.5,14.73 117.66,15.125 z" />
      <path
         inkscape:connector-curvature="0"
         id="path3107"
         style="opacity:0.37673998;color:#000000;fill:url(#radialGradient3119);enable-background:accumulate"
         d="m 230.68,124.23 c -24.681,0 -44.688,20.006 -44.688,44.688 0,24.681 20.006,44.688 44.688,44.688 24.681,0 44.717,-20.006 44.717,-44.688 0,-24.681 -20.036,-44.688 -44.717,-44.688 z" />
      <path
         inkscape:connector-curvature="0"
         id="path3109"
         style="opacity:0.48372001;color:#000000;fill:url(#radialGradient3121);enable-background:accumulate"
         d="m 215.94,38.12 c -25.672,0 -46.48,20.809 -46.48,46.48 0,25.672 20.809,46.48 46.48,46.48 25.672,0 46.511,-20.809 46.511,-46.48 0,-25.672 -20.839,-46.48 -46.511,-46.48 z" />
      <path
         inkscape:connector-curvature="0"
         id="path3111"
         style="text-indent:0;text-transform:none;block-progression:tb;color:#000000;fill:url(#radialGradient3123);enable-background:accumulate"
         transform="translate(80.19,14.37)"
         d="m 144.34,21.406 c 3.38,6.531 5.82,14.419 7.41,23.188 -9.4,-2.227 -18.63,-5.852 -27.87,-9.406 -11.87,-4.561 -23.79,-8.969 -36.255,-9.782 -1.558,-0.101 -3.113,-0.145 -4.687,-0.125 -1.522,0.02 -3.057,0.106 -4.594,0.25 -3.51,2.248 -7.975,3.896 -11.563,5.407 7.051,-2.378 13.914,-3.002 20.657,-2.563 11.841,0.772 23.442,5.013 35.282,9.563 9.62,3.7 19.4,7.552 29.56,9.812 0.72,4.617 1.21,9.487 1.5,14.5 -10.93,-2.132 -22.38,-3.328 -33.84,-3.562 -1.38,-0.029 -2.75,-0.031 -4.13,-0.032 C 78.004,58.637 40.398,68.997 20.688,91.062 20.179,93.196 19.75,95.336 19.375,97.5 37.41,72.777 78.772,60.91 119.875,61.75 c 11.58,0.237 23.09,1.498 34.06,3.719 0,0.114 0.02,0.23 0.03,0.343 0.23,5.994 0.16,12.204 -0.13,18.532 -1.84,-0.257 -3.7,-0.443 -5.56,-0.469 -0.8,-0.011 -1.6,0 -2.4,0.031 -7.71,0.306 -15.42,2.568 -22.66,6.875 -25.844,15.379 -61.665,46.989 -84.22,85.909 0.678,0.86 1.389,1.72 2.094,2.56 22.198,-38.84 58.194,-70.73 83.746,-85.938 9.28,-5.523 19.29,-7.538 28.88,-6.124 -0.85,14.842 -2.99,30.252 -6.1,45.032 -4.63,22.06 -11.36,42.74 -18.84,58.03 -3.74,7.65 -7.65,13.95 -11.53,18.37 -2.39,2.73 -4.79,4.71 -7.03,5.91 1.66,0.12 3.34,0.18 5.03,0.22 1.46,-1.19 2.89,-2.6 4.31,-4.22 4.15,-4.73 8.22,-11.23 12.03,-19.03 7.63,-15.6 14.36,-36.47 19.03,-58.72 3.11,-14.78 5.29,-30.15 6.16,-45.03 8.1,1.83 15.76,6.154 22.31,12.97 13.63,14.18 22.24,39.33 18.19,75.19 1.27,-1.68 2.44,-3.43 3.6,-5.19 2.68,-33.6 -5.82,-57.76 -19.5,-72.001 -7.07,-7.35 -15.53,-11.955 -24.44,-13.844 0.3,-6.376 0.34,-12.649 0.12,-18.719 25.43,5.638 47.39,16.565 59.13,32.282 -0.35,-2.156 -0.73,-4.311 -1.22,-6.438 -13.05,-14.317 -34.17,-24.021 -58.06,-29.125 -0.27,-4.995 -0.76,-9.825 -1.44,-14.469 1.28,0.237 2.58,0.48 3.87,0.656 9.63,1.316 19.65,0.793 30.16,-2.937 -0.82,-0.765 -1.63,-1.542 -2.47,-2.281 -9.47,3.119 -18.46,3.483 -27.25,2.281 -1.6,-0.219 -3.19,-0.465 -4.78,-0.781 -1.44,-8.446 -3.64,-16.182 -6.75,-22.844 -1.29,-0.386 -2.59,-0.756 -3.91,-1.094 z" />
      <path
         inkscape:connector-curvature="0"
         id="path3113"
         style="text-indent:0;text-transform:none;block-progression:tb;color:#000000;enable-background:accumulate"
         d="m 223.75,33.286 c 3.2773,6.6153 5.645,14.596 7.1928,23.478 -9.1235,-2.2554 -18.086,-5.9277 -27.059,-9.5281 -11.513,-4.6196 -23.09,-9.0788 -35.185,-9.9017 -1.5119,-0.10286 -3.0183,-0.14487 -4.5461,-0.12455 -1.4765,0.01963 -2.9608,0.10279 -4.4527,0.2491 -3.4059,2.2767 -7.728,3.95 -11.21,5.4802 6.8415,-2.4084 13.479,-3.0607 20.021,-2.6156 11.49,0.78175 22.766,5.0752 34.251,9.6838 9.3411,3.7482 18.817,7.6745 28.678,9.964 0.6963,4.6765 1.1788,9.5881 1.4635,14.666 -10.609,-2.1598 -21.724,-3.3747 -32.85,-3.612 -1.3332,-0.0284 -2.652,-0.03049 -3.9856,-0.03109 -38.474,-0.02013 -76.761,11.531 -95.001,36.182 -0.93416,1.3192 0.0361,1.6682 -0.31137,3.3006 -0.21218,0.88309 -0.64984,3.2289 -1.0275,3.8922 l 0.15569,0.0934 c 15.834,-27.832 58.104,-41.218 100.11,-40.322 11.246,0.23982 22.429,1.5177 33.068,3.7676 0.005,0.11529 0.0268,0.22706 0.0311,0.34251 0.22538,6.0707 0.15567,12.366 -0.12455,18.776 -1.786,-0.26003 -3.581,-0.44108 -5.3868,-0.46706 -0.77711,-0.01116 -1.5566,-9.96e-4 -2.3353,0.03109 -7.4755,0.30991 -14.992,2.612 -22.014,6.9748 -25.458,15.817 -60.884,48.557 -82.701,88.804 0.68028,0.8359 1.3797,1.6468 2.0862,2.4599 21.455,-40.107 57.05,-73.084 82.203,-88.711 9.0049,-5.5945 18.719,-7.6287 28.024,-6.1964 -0.8195,15.038 -2.9048,30.646 -5.9161,45.617 -4.4951,22.348 -11.025,43.268 -18.278,58.757 -3.6264,7.7443 -7.4401,14.139 -11.21,18.62 -2.3224,2.761 -4.6395,4.758 -6.8191,5.9784 1.6166,0.11598 3.2515,0.18003 4.8886,0.21797 1.4176,-1.203 2.8234,-2.6251 4.2036,-4.2658 4.027,-4.7875 7.9459,-11.374 11.645,-19.274 7.3992,-15.801 13.962,-36.932 18.496,-59.473 3.0116,-14.973 5.1034,-30.546 5.9473,-45.617 7.8588,1.8536 15.316,6.2374 21.672,13.14 13.607,14.778 22.021,41.302 17.25,79.307 1.2241,-1.4819 2.4115,-2.994 3.5497,-4.5461 3.5571,-36.042 -4.8141,-61.824 -18.589,-76.785 -6.8542,-7.4444 -15.075,-12.13 -23.727,-14.043 0.29207,-6.4582 0.33982,-12.814 0.12455,-18.963 26.85,6.2139 49.758,18.771 60.189,37.023 -0.39941,-2.6089 -0.8794,-5.2128 -1.4635,-7.7532 -12.35,-16.196 -34.092,-27.043 -58.881,-32.57 -0.26044,-5.0593 -0.70953,-9.9618 -1.37,-14.666 1.2399,0.23973 2.4832,0.47508 3.7365,0.65389 9.337,1.3322 19.073,0.81987 29.269,-2.9581 -0.79153,-0.77527 -1.5806,-1.5554 -2.3976,-2.3042 -9.192,3.1591 -17.903,3.5217 -26.436,2.3042 -1.5533,-0.22162 -3.098,-0.48928 -4.6395,-0.80958 -1.402,-8.5549 -3.5242,-16.387 -6.5389,-23.135 -1.2527,-0.39058 -2.5254,-0.74789 -3.7988,-1.0898 z" />
    </g>
    <g
       transform="matrix(0.11992639,0,0,0.06847392,170.68255,1032.0224)"
       id="g3129"
       style="enable-background:new">
      <g
         id="g3157"
         transform="translate(-155.40574,-0.87537205)">
        <path
           inkscape:connector-curvature="0"
           id="path3133"
           style="color:#000000;fill:url(#radialGradient3145);enable-background:accumulate"
           transform="translate(80.19,14.37)"
           d="M 117.66,15.125 C 77.759,14.61 39.262,40.66 24.844,77.875 c -5.392,13.598 -7.469,28.495 -7.125,43.065 1.969,43.65 35.905,83.39 78.781,92 39.66,8.93 83.69,-9.1 105.31,-43.63 C 224.22,135.02 222.73,86.969 197.34,54.63 178.72,30.193 148.5,14.73 117.66,15.125 z" />
        <path
           inkscape:connector-curvature="0"
           id="path3135"
           style="opacity:0.37673998;color:#000000;fill:url(#radialGradient3147);enable-background:accumulate"
           d="m 230.68,124.23 c -24.681,0 -44.688,20.006 -44.688,44.688 0,24.681 20.006,44.688 44.688,44.688 24.681,0 44.717,-20.006 44.717,-44.688 0,-24.681 -20.036,-44.688 -44.717,-44.688 z" />
        <path
           inkscape:connector-curvature="0"
           id="path3137"
           style="opacity:0.48372001;color:#000000;fill:url(#radialGradient3149);enable-background:accumulate"
           d="m 215.94,38.12 c -25.672,0 -46.48,20.809 -46.48,46.48 0,25.672 20.809,46.48 46.48,46.48 25.672,0 46.511,-20.809 46.511,-46.48 0,-25.672 -20.839,-46.48 -46.511,-46.48 z" />
        <path
           inkscape:connector-curvature="0"
           id="path3139"
           style="text-indent:0;text-transform:none;block-progression:tb;color:#000000;fill:url(#radialGradient3151);enable-background:accumulate"
           transform="translate(80.19,14.37)"
           d="m 144.34,21.406 c 3.38,6.531 5.82,14.419 7.41,23.188 -9.4,-2.227 -18.63,-5.852 -27.87,-9.406 -11.87,-4.561 -23.79,-8.969 -36.255,-9.782 -1.558,-0.101 -3.113,-0.145 -4.687,-0.125 -1.522,0.02 -3.057,0.106 -4.594,0.25 -3.51,2.248 -7.975,3.896 -11.563,5.407 7.051,-2.378 13.914,-3.002 20.657,-2.563 11.841,0.772 23.442,5.013 35.282,9.563 9.62,3.7 19.4,7.552 29.56,9.812 0.72,4.617 1.21,9.487 1.5,14.5 -10.93,-2.132 -22.38,-3.328 -33.84,-3.562 -1.38,-0.029 -2.75,-0.031 -4.13,-0.032 C 78.004,58.637 40.398,68.997 20.688,91.062 20.179,93.196 19.75,95.336 19.375,97.5 37.41,72.777 78.772,60.91 119.875,61.75 c 11.58,0.237 23.09,1.498 34.06,3.719 0,0.114 0.02,0.23 0.03,0.343 0.23,5.994 0.16,12.204 -0.13,18.532 -1.84,-0.257 -3.7,-0.443 -5.56,-0.469 -0.8,-0.011 -1.6,0 -2.4,0.031 -7.71,0.306 -15.42,2.568 -22.66,6.875 -25.844,15.379 -61.665,46.989 -84.22,85.909 0.678,0.86 1.389,1.72 2.094,2.56 22.198,-38.84 58.194,-70.73 83.746,-85.938 9.28,-5.523 19.29,-7.538 28.88,-6.124 -0.85,14.842 -2.99,30.252 -6.1,45.032 -4.63,22.06 -11.36,42.74 -18.84,58.03 -3.74,7.65 -7.65,13.95 -11.53,18.37 -2.39,2.73 -4.79,4.71 -7.03,5.91 1.66,0.12 3.34,0.18 5.03,0.22 1.46,-1.19 2.89,-2.6 4.31,-4.22 4.15,-4.73 8.22,-11.23 12.03,-19.03 7.63,-15.6 14.36,-36.47 19.03,-58.72 3.11,-14.78 5.29,-30.15 6.16,-45.03 8.1,1.83 15.76,6.154 22.31,12.97 13.63,14.18 22.24,39.33 18.19,75.19 1.27,-1.68 2.44,-3.43 3.6,-5.19 2.68,-33.6 -5.82,-57.76 -19.5,-72.001 -7.07,-7.35 -15.53,-11.955 -24.44,-13.844 0.3,-6.376 0.34,-12.649 0.12,-18.719 25.43,5.638 47.39,16.565 59.13,32.282 -0.35,-2.156 -0.73,-4.311 -1.22,-6.438 -13.05,-14.317 -34.17,-24.021 -58.06,-29.125 -0.27,-4.995 -0.76,-9.825 -1.44,-14.469 1.28,0.237 2.58,0.48 3.87,0.656 9.63,1.316 19.65,0.793 30.16,-2.937 -0.82,-0.765 -1.63,-1.542 -2.47,-2.281 -9.47,3.119 -18.46,3.483 -27.25,2.281 -1.6,-0.219 -3.19,-0.465 -4.78,-0.781 -1.44,-8.446 -3.64,-16.182 -6.75,-22.844 -1.29,-0.386 -2.59,-0.756 -3.91,-1.094 z" />
        <path
           inkscape:connector-curvature="0"
           id="path3141"
           style="text-indent:0;text-transform:none;block-progression:tb;color:#000000;enable-background:accumulate"
           d="m 223.75,33.286 c 3.2773,6.6153 5.645,14.596 7.1928,23.478 -9.1235,-2.2554 -18.086,-5.9277 -27.059,-9.5281 -11.513,-4.6196 -23.09,-9.0788 -35.185,-9.9017 -1.5119,-0.10286 -3.0183,-0.14487 -4.5461,-0.12455 -1.4765,0.01963 -2.9608,0.10279 -4.4527,0.2491 -3.4059,2.2767 -7.728,3.95 -11.21,5.4802 6.8415,-2.4084 13.479,-3.0607 20.021,-2.6156 11.49,0.78175 22.766,5.0752 34.251,9.6838 9.3411,3.7482 18.817,7.6745 28.678,9.964 0.6963,4.6765 1.1788,9.5881 1.4635,14.666 -10.609,-2.1598 -21.724,-3.3747 -32.85,-3.612 -1.3332,-0.0284 -2.652,-0.03049 -3.9856,-0.03109 -38.474,-0.02013 -76.761,11.531 -95.001,36.182 -0.93416,1.3192 0.0361,1.6682 -0.31137,3.3006 -0.21218,0.88309 -0.64984,3.2289 -1.0275,3.8922 l 0.15569,0.0934 c 15.834,-27.832 58.104,-41.218 100.11,-40.322 11.246,0.23982 22.429,1.5177 33.068,3.7676 0.005,0.11529 0.0268,0.22706 0.0311,0.34251 0.22538,6.0707 0.15567,12.366 -0.12455,18.776 -1.786,-0.26003 -3.581,-0.44108 -5.3868,-0.46706 -0.77711,-0.01116 -1.5566,-9.96e-4 -2.3353,0.03109 -7.4755,0.30991 -14.992,2.612 -22.014,6.9748 -25.458,15.817 -60.884,48.557 -82.701,88.804 0.68028,0.8359 1.3797,1.6468 2.0862,2.4599 21.455,-40.107 57.05,-73.084 82.203,-88.711 9.0049,-5.5945 18.719,-7.6287 28.024,-6.1964 -0.8195,15.038 -2.9048,30.646 -5.9161,45.617 -4.4951,22.348 -11.025,43.268 -18.278,58.757 -3.6264,7.7443 -7.4401,14.139 -11.21,18.62 -2.3224,2.761 -4.6395,4.758 -6.8191,5.9784 1.6166,0.11598 3.2515,0.18003 4.8886,0.21797 1.4176,-1.203 2.8234,-2.6251 4.2036,-4.2658 4.027,-4.7875 7.9459,-11.374 11.645,-19.274 7.3992,-15.801 13.962,-36.932 18.496,-59.473 3.0116,-14.973 5.1034,-30.546 5.9473,-45.617 7.8588,1.8536 15.316,6.2374 21.672,13.14 13.607,14.778 22.021,41.302 17.25,79.307 1.2241,-1.4819 2.4115,-2.994 3.5497,-4.5461 3.5571,-36.042 -4.8141,-61.824 -18.589,-76.785 -6.8542,-7.4444 -15.075,-12.13 -23.727,-14.043 0.29207,-6.4582 0.33982,-12.814 0.12455,-18.963 26.85,6.2139 49.758,18.771 60.189,37.023 -0.39941,-2.6089 -0.8794,-5.2128 -1.4635,-7.7532 -12.35,-16.196 -34.092,-27.043 -58.881,-32.57 -0.26044,-5.0593 -0.70953,-9.9618 -1.37,-14.666 1.2399,0.23973 2.4832,0.47508 3.7365,0.65389 9.337,1.3322 19.073,0.81987 29.269,-2.9581 -0.79153,-0.77527 -1.5806,-1.5554 -2.3976,-2.3042 -9.192,3.1591 -17.903,3.5217 -26.436,2.3042 -1.5533,-0.22162 -3.098,-0.48928 -4.6395,-0.80958 -1.402,-8.5549 -3.5242,-16.387 -6.5389,-23.135 -1.2527,-0.39058 -2.5254,-0.74789 -3.7988,-1.0898 z" />
      </g>
    </g>
    <g
       transform="matrix(0.09892243,0,0,0.09892243,256.16821,1005.8058)"
       id="g3164"
       style="enable-background:new">
      <path
         d="M 117.66,15.125 C 77.759,14.61 39.262,40.66 24.844,77.875 c -5.392,13.598 -7.469,28.495 -7.125,43.065 1.969,43.65 35.905,83.39 78.781,92 39.66,8.93 83.69,-9.1 105.31,-43.63 C 224.22,135.02 222.73,86.969 197.34,54.63 178.72,30.193 148.5,14.73 117.66,15.125 z"
         transform="translate(80.19,14.37)"
         style="color:#000000;fill:url(#radialGradient3176);enable-background:accumulate"
         id="path3166"
         inkscape:connector-curvature="0" />
      <path
         d="m 230.68,124.23 c -24.681,0 -44.688,20.006 -44.688,44.688 0,24.681 20.006,44.688 44.688,44.688 24.681,0 44.717,-20.006 44.717,-44.688 0,-24.681 -20.036,-44.688 -44.717,-44.688 z"
         style="opacity:0.37673998;color:#000000;fill:url(#radialGradient3178);enable-background:accumulate"
         id="path3168"
         inkscape:connector-curvature="0" />
      <path
         d="m 215.94,38.12 c -25.672,0 -46.48,20.809 -46.48,46.48 0,25.672 20.809,46.48 46.48,46.48 25.672,0 46.511,-20.809 46.511,-46.48 0,-25.672 -20.839,-46.48 -46.511,-46.48 z"
         style="opacity:0.48372001;color:#000000;fill:url(#radialGradient3180);enable-background:accumulate"
         id="path3170"
         inkscape:connector-curvature="0" />
      <path
         d="m 144.34,21.406 c 3.38,6.531 5.82,14.419 7.41,23.188 -9.4,-2.227 -18.63,-5.852 -27.87,-9.406 -11.87,-4.561 -23.79,-8.969 -36.255,-9.782 -1.558,-0.101 -3.113,-0.145 -4.687,-0.125 -1.522,0.02 -3.057,0.106 -4.594,0.25 -3.51,2.248 -7.975,3.896 -11.563,5.407 7.051,-2.378 13.914,-3.002 20.657,-2.563 11.841,0.772 23.442,5.013 35.282,9.563 9.62,3.7 19.4,7.552 29.56,9.812 0.72,4.617 1.21,9.487 1.5,14.5 -10.93,-2.132 -22.38,-3.328 -33.84,-3.562 -1.38,-0.029 -2.75,-0.031 -4.13,-0.032 C 78.004,58.637 40.398,68.997 20.688,91.062 20.179,93.196 19.75,95.336 19.375,97.5 37.41,72.777 78.772,60.91 119.875,61.75 c 11.58,0.237 23.09,1.498 34.06,3.719 0,0.114 0.02,0.23 0.03,0.343 0.23,5.994 0.16,12.204 -0.13,18.532 -1.84,-0.257 -3.7,-0.443 -5.56,-0.469 -0.8,-0.011 -1.6,0 -2.4,0.031 -7.71,0.306 -15.42,2.568 -22.66,6.875 -25.844,15.379 -61.665,46.989 -84.22,85.909 0.678,0.86 1.389,1.72 2.094,2.56 22.198,-38.84 58.194,-70.73 83.746,-85.938 9.28,-5.523 19.29,-7.538 28.88,-6.124 -0.85,14.842 -2.99,30.252 -6.1,45.032 -4.63,22.06 -11.36,42.74 -18.84,58.03 -3.74,7.65 -7.65,13.95 -11.53,18.37 -2.39,2.73 -4.79,4.71 -7.03,5.91 1.66,0.12 3.34,0.18 5.03,0.22 1.46,-1.19 2.89,-2.6 4.31,-4.22 4.15,-4.73 8.22,-11.23 12.03,-19.03 7.63,-15.6 14.36,-36.47 19.03,-58.72 3.11,-14.78 5.29,-30.15 6.16,-45.03 8.1,1.83 15.76,6.154 22.31,12.97 13.63,14.18 22.24,39.33 18.19,75.19 1.27,-1.68 2.44,-3.43 3.6,-5.19 2.68,-33.6 -5.82,-57.76 -19.5,-72.001 -7.07,-7.35 -15.53,-11.955 -24.44,-13.844 0.3,-6.376 0.34,-12.649 0.12,-18.719 25.43,5.638 47.39,16.565 59.13,32.282 -0.35,-2.156 -0.73,-4.311 -1.22,-6.438 -13.05,-14.317 -34.17,-24.021 -58.06,-29.125 -0.27,-4.995 -0.76,-9.825 -1.44,-14.469 1.28,0.237 2.58,0.48 3.87,0.656 9.63,1.316 19.65,0.793 30.16,-2.937 -0.82,-0.765 -1.63,-1.542 -2.47,-2.281 -9.47,3.119 -18.46,3.483 -27.25,2.281 -1.6,-0.219 -3.19,-0.465 -4.78,-0.781 -1.44,-8.446 -3.64,-16.182 -6.75,-22.844 -1.29,-0.386 -2.59,-0.756 -3.91,-1.094 z"
         transform="translate(80.19,14.37)"
         style="text-indent:0;text-transform:none;block-progression:tb;color:#000000;fill:url(#radialGradient3182);enable-background:accumulate"
         id="path3172"
         inkscape:connector-curvature="0" />
      <path
         d="m 223.75,33.286 c 3.2773,6.6153 5.645,14.596 7.1928,23.478 -9.1235,-2.2554 -18.086,-5.9277 -27.059,-9.5281 -11.513,-4.6196 -23.09,-9.0788 -35.185,-9.9017 -1.5119,-0.10286 -3.0183,-0.14487 -4.5461,-0.12455 -1.4765,0.01963 -2.9608,0.10279 -4.4527,0.2491 -3.4059,2.2767 -7.728,3.95 -11.21,5.4802 6.8415,-2.4084 13.479,-3.0607 20.021,-2.6156 11.49,0.78175 22.766,5.0752 34.251,9.6838 9.3411,3.7482 18.817,7.6745 28.678,9.964 0.6963,4.6765 1.1788,9.5881 1.4635,14.666 -10.609,-2.1598 -21.724,-3.3747 -32.85,-3.612 -1.3332,-0.0284 -2.652,-0.03049 -3.9856,-0.03109 -38.474,-0.02013 -76.761,11.531 -95.001,36.182 -0.93416,1.3192 0.0361,1.6682 -0.31137,3.3006 -0.21218,0.88309 -0.64984,3.2289 -1.0275,3.8922 l 0.15569,0.0934 c 15.834,-27.832 58.104,-41.218 100.11,-40.322 11.246,0.23982 22.429,1.5177 33.068,3.7676 0.005,0.11529 0.0268,0.22706 0.0311,0.34251 0.22538,6.0707 0.15567,12.366 -0.12455,18.776 -1.786,-0.26003 -3.581,-0.44108 -5.3868,-0.46706 -0.77711,-0.01116 -1.5566,-9.96e-4 -2.3353,0.03109 -7.4755,0.30991 -14.992,2.612 -22.014,6.9748 -25.458,15.817 -60.884,48.557 -82.701,88.804 0.68028,0.8359 1.3797,1.6468 2.0862,2.4599 21.455,-40.107 57.05,-73.084 82.203,-88.711 9.0049,-5.5945 18.719,-7.6287 28.024,-6.1964 -0.8195,15.038 -2.9048,30.646 -5.9161,45.617 -4.4951,22.348 -11.025,43.268 -18.278,58.757 -3.6264,7.7443 -7.4401,14.139 -11.21,18.62 -2.3224,2.761 -4.6395,4.758 -6.8191,5.9784 1.6166,0.11598 3.2515,0.18003 4.8886,0.21797 1.4176,-1.203 2.8234,-2.6251 4.2036,-4.2658 4.027,-4.7875 7.9459,-11.374 11.645,-19.274 7.3992,-15.801 13.962,-36.932 18.496,-59.473 3.0116,-14.973 5.1034,-30.546 5.9473,-45.617 7.8588,1.8536 15.316,6.2374 21.672,13.14 13.607,14.778 22.021,41.302 17.25,79.307 1.2241,-1.4819 2.4115,-2.994 3.5497,-4.5461 3.5571,-36.042 -4.8141,-61.824 -18.589,-76.785 -6.8542,-7.4444 -15.075,-12.13 -23.727,-14.043 0.29207,-6.4582 0.33982,-12.814 0.12455,-18.963 26.85,6.2139 49.758,18.771 60.189,37.023 -0.39941,-2.6089 -0.8794,-5.2128 -1.4635,-7.7532 -12.35,-16.196 -34.092,-27.043 -58.881,-32.57 -0.26044,-5.0593 -0.70953,-9.9618 -1.37,-14.666 1.2399,0.23973 2.4832,0.47508 3.7365,0.65389 9.337,1.3322 19.073,0.81987 29.269,-2.9581 -0.79153,-0.77527 -1.5806,-1.5554 -2.3976,-2.3042 -9.192,3.1591 -17.903,3.5217 -26.436,2.3042 -1.5533,-0.22162 -3.098,-0.48928 -4.6395,-0.80958 -1.402,-8.5549 -3.5242,-16.387 -6.5389,-23.135 -1.2527,-0.39058 -2.5254,-0.74789 -3.7988,-1.0898 z"
         style="text-indent:0;text-transform:none;block-progression:tb;color:#000000;enable-background:accumulate"
         id="path3174"
         inkscape:connector-curvature="0" />
    </g>
    <g
       transform="matrix(0.08975576,4.4934436e-5,-5.2107711e-5,0.10407273,208.29033,1016.7701)"
       id="g3184"
       style="enable-background:new">
      <path
         d="M 117.66,15.125 C 77.759,14.61 39.262,40.66 24.844,77.875 c -5.392,13.598 -7.469,28.495 -7.125,43.065 1.969,43.65 35.905,83.39 78.781,92 39.66,8.93 83.69,-9.1 105.31,-43.63 C 224.22,135.02 222.73,86.969 197.34,54.63 178.72,30.193 148.5,14.73 117.66,15.125 z"
         transform="translate(80.19,14.37)"
         style="color:#000000;fill:url(#radialGradient3196);enable-background:accumulate"
         id="path3186"
         inkscape:connector-curvature="0" />
      <path
         d="m 230.68,124.23 c -24.681,0 -44.688,20.006 -44.688,44.688 0,24.681 20.006,44.688 44.688,44.688 24.681,0 44.717,-20.006 44.717,-44.688 0,-24.681 -20.036,-44.688 -44.717,-44.688 z"
         style="opacity:0.37673998;color:#000000;fill:url(#radialGradient3198);enable-background:accumulate"
         id="path3188"
         inkscape:connector-curvature="0" />
      <path
         d="m 215.94,38.12 c -25.672,0 -46.48,20.809 -46.48,46.48 0,25.672 20.809,46.48 46.48,46.48 25.672,0 46.511,-20.809 46.511,-46.48 0,-25.672 -20.839,-46.48 -46.511,-46.48 z"
         style="opacity:0.48372001;color:#000000;fill:url(#radialGradient3200);enable-background:accumulate"
         id="path3190"
         inkscape:connector-curvature="0" />
      <path
         d="m 144.34,21.406 c 3.38,6.531 5.82,14.419 7.41,23.188 -9.4,-2.227 -18.63,-5.852 -27.87,-9.406 -11.87,-4.561 -23.79,-8.969 -36.255,-9.782 -1.558,-0.101 -3.113,-0.145 -4.687,-0.125 -1.522,0.02 -3.057,0.106 -4.594,0.25 -3.51,2.248 -7.975,3.896 -11.563,5.407 7.051,-2.378 13.914,-3.002 20.657,-2.563 11.841,0.772 23.442,5.013 35.282,9.563 9.62,3.7 19.4,7.552 29.56,9.812 0.72,4.617 1.21,9.487 1.5,14.5 -10.93,-2.132 -22.38,-3.328 -33.84,-3.562 -1.38,-0.029 -2.75,-0.031 -4.13,-0.032 C 78.004,58.637 40.398,68.997 20.688,91.062 20.179,93.196 19.75,95.336 19.375,97.5 37.41,72.777 78.772,60.91 119.875,61.75 c 11.58,0.237 23.09,1.498 34.06,3.719 0,0.114 0.02,0.23 0.03,0.343 0.23,5.994 0.16,12.204 -0.13,18.532 -1.84,-0.257 -3.7,-0.443 -5.56,-0.469 -0.8,-0.011 -1.6,0 -2.4,0.031 -7.71,0.306 -15.42,2.568 -22.66,6.875 -25.844,15.379 -61.665,46.989 -84.22,85.909 0.678,0.86 1.389,1.72 2.094,2.56 22.198,-38.84 58.194,-70.73 83.746,-85.938 9.28,-5.523 19.29,-7.538 28.88,-6.124 -0.85,14.842 -2.99,30.252 -6.1,45.032 -4.63,22.06 -11.36,42.74 -18.84,58.03 -3.74,7.65 -7.65,13.95 -11.53,18.37 -2.39,2.73 -4.79,4.71 -7.03,5.91 1.66,0.12 3.34,0.18 5.03,0.22 1.46,-1.19 2.89,-2.6 4.31,-4.22 4.15,-4.73 8.22,-11.23 12.03,-19.03 7.63,-15.6 14.36,-36.47 19.03,-58.72 3.11,-14.78 5.29,-30.15 6.16,-45.03 8.1,1.83 15.76,6.154 22.31,12.97 13.63,14.18 22.24,39.33 18.19,75.19 1.27,-1.68 2.44,-3.43 3.6,-5.19 2.68,-33.6 -5.82,-57.76 -19.5,-72.001 -7.07,-7.35 -15.53,-11.955 -24.44,-13.844 0.3,-6.376 0.34,-12.649 0.12,-18.719 25.43,5.638 47.39,16.565 59.13,32.282 -0.35,-2.156 -0.73,-4.311 -1.22,-6.438 -13.05,-14.317 -34.17,-24.021 -58.06,-29.125 -0.27,-4.995 -0.76,-9.825 -1.44,-14.469 1.28,0.237 2.58,0.48 3.87,0.656 9.63,1.316 19.65,0.793 30.16,-2.937 -0.82,-0.765 -1.63,-1.542 -2.47,-2.281 -9.47,3.119 -18.46,3.483 -27.25,2.281 -1.6,-0.219 -3.19,-0.465 -4.78,-0.781 -1.44,-8.446 -3.64,-16.182 -6.75,-22.844 -1.29,-0.386 -2.59,-0.756 -3.91,-1.094 z"
         transform="translate(80.19,14.37)"
         style="text-indent:0;text-transform:none;block-progression:tb;color:#000000;fill:url(#radialGradient3202);enable-background:accumulate"
         id="path3192"
         inkscape:connector-curvature="0" />
      <path
         d="m 223.75,33.286 c 3.2773,6.6153 5.645,14.596 7.1928,23.478 -9.1235,-2.2554 -18.086,-5.9277 -27.059,-9.5281 -11.513,-4.6196 -23.09,-9.0788 -35.185,-9.9017 -1.5119,-0.10286 -3.0183,-0.14487 -4.5461,-0.12455 -1.4765,0.01963 -2.9608,0.10279 -4.4527,0.2491 -3.4059,2.2767 -7.728,3.95 -11.21,5.4802 6.8415,-2.4084 13.479,-3.0607 20.021,-2.6156 11.49,0.78175 22.766,5.0752 34.251,9.6838 9.3411,3.7482 18.817,7.6745 28.678,9.964 0.6963,4.6765 1.1788,9.5881 1.4635,14.666 -10.609,-2.1598 -21.724,-3.3747 -32.85,-3.612 -1.3332,-0.0284 -2.652,-0.03049 -3.9856,-0.03109 -38.474,-0.02013 -76.761,11.531 -95.001,36.182 -0.93416,1.3192 0.0361,1.6682 -0.31137,3.3006 -0.21218,0.88309 -0.64984,3.2289 -1.0275,3.8922 l 0.15569,0.0934 c 15.834,-27.832 58.104,-41.218 100.11,-40.322 11.246,0.23982 22.429,1.5177 33.068,3.7676 0.005,0.11529 0.0268,0.22706 0.0311,0.34251 0.22538,6.0707 0.15567,12.366 -0.12455,18.776 -1.786,-0.26003 -3.581,-0.44108 -5.3868,-0.46706 -0.77711,-0.01116 -1.5566,-9.96e-4 -2.3353,0.03109 -7.4755,0.30991 -14.992,2.612 -22.014,6.9748 -25.458,15.817 -60.884,48.557 -82.701,88.804 0.68028,0.8359 1.3797,1.6468 2.0862,2.4599 21.455,-40.107 57.05,-73.084 82.203,-88.711 9.0049,-5.5945 18.719,-7.6287 28.024,-6.1964 -0.8195,15.038 -2.9048,30.646 -5.9161,45.617 -4.4951,22.348 -11.025,43.268 -18.278,58.757 -3.6264,7.7443 -7.4401,14.139 -11.21,18.62 -2.3224,2.761 -4.6395,4.758 -6.8191,5.9784 1.6166,0.11598 3.2515,0.18003 4.8886,0.21797 1.4176,-1.203 2.8234,-2.6251 4.2036,-4.2658 4.027,-4.7875 7.9459,-11.374 11.645,-19.274 7.3992,-15.801 13.962,-36.932 18.496,-59.473 3.0116,-14.973 5.1034,-30.546 5.9473,-45.617 7.8588,1.8536 15.316,6.2374 21.672,13.14 13.607,14.778 22.021,41.302 17.25,79.307 1.2241,-1.4819 2.4115,-2.994 3.5497,-4.5461 3.5571,-36.042 -4.8141,-61.824 -18.589,-76.785 -6.8542,-7.4444 -15.075,-12.13 -23.727,-14.043 0.29207,-6.4582 0.33982,-12.814 0.12455,-18.963 26.85,6.2139 49.758,18.771 60.189,37.023 -0.39941,-2.6089 -0.8794,-5.2128 -1.4635,-7.7532 -12.35,-16.196 -34.092,-27.043 -58.881,-32.57 -0.26044,-5.0593 -0.70953,-9.9618 -1.37,-14.666 1.2399,0.23973 2.4832,0.47508 3.7365,0.65389 9.337,1.3322 19.073,0.81987 29.269,-2.9581 -0.79153,-0.77527 -1.5806,-1.5554 -2.3976,-2.3042 -9.192,3.1591 -17.903,3.5217 -26.436,2.3042 -1.5533,-0.22162 -3.098,-0.48928 -4.6395,-0.80958 -1.402,-8.5549 -3.5242,-16.387 -6.5389,-23.135 -1.2527,-0.39058 -2.5254,-0.74789 -3.7988,-1.0898 z"
         style="text-indent:0;text-transform:none;block-progression:tb;color:#000000;enable-background:accumulate"
         id="path3194"
         inkscape:connector-curvature="0" />
    </g>
    <g
       transform="matrix(0.09892243,0,0,0.09892243,-36.816309,1019.7551)"
       id="g3204"
       style="enable-background:new">
      <path
         d="m 2646.683,268.96933 c -35.9683,-0.13159 -70.6746,6.52465 -83.6728,16.03381 -4.8606,3.47464 -6.7335,7.28125 -6.4234,11.00323 1.7752,11.15465 32.3694,21.30901 71.0234,23.50761 35.7565,2.28379 75.4473,-2.32418 94.9402,-11.147 20.1988,-8.76257 18.8546,-21.03965 -4.0288,-29.30445 -16.7883,-6.24291 -44.0307,-10.19403 -71.8411,-10.09301 z"
         style="color:#000000;fill:url(#radialGradient3238);enable-background:accumulate"
         id="path3222"
         inkscape:connector-curvature="0" />
      <path
         inkscape:connector-curvature="0"
         id="path3242"
         style="color:#000000;fill:url(#radialGradient3244);enable-background:accumulate"
         d="m 3152.1295,258.8604 c -39.897,-0.13159 -78.394,6.52465 -92.812,16.03381 -5.3915,3.47464 -7.4689,7.28125 -7.125,11.00323 1.9691,11.15465 35.905,21.30901 78.781,23.50761 39.662,2.28379 83.688,-2.32418 105.31,-11.147 22.405,-8.76257 20.914,-21.03965 -4.4688,-29.30445 -18.622,-6.24291 -48.84,-10.19403 -79.688,-10.09301 z" />
    </g>
  </g>
</svg>
